<svg xmlns="http://www.w3.org/2000/svg" xmlns:xlink="http://www.w3.org/1999/xlink" width="492.816" height="217.702" viewBox="0 0 492.816 217.702"><defs><style>.a{filter:url(#k);}.b{filter:url(#i);}.c{filter:url(#g);}.d{filter:url(#e);}.e{filter:url(#c);}.f{filter:url(#a);}</style><filter id="a" x="137.122" y="106.131" width="218.557" height="111.571" filterUnits="userSpaceOnUse"><feOffset dx="20" dy="3" input="SourceAlpha"/><feGaussianBlur stdDeviation="3" result="b"/><feFlood flood-opacity="0.161"/><feComposite operator="in" in2="b"/><feComposite in="SourceGraphic"/></filter><filter id="c" x="314.192" y="126.332" width="178.624" height="88.438" filterUnits="userSpaceOnUse"><feOffset dx="20" dy="3" input="SourceAlpha"/><feGaussianBlur stdDeviation="3" result="d"/><feFlood flood-opacity="0.161"/><feComposite operator="in" in2="d"/><feComposite in="SourceGraphic"/></filter><filter id="e" x="0" y="126.332" width="178.609" height="88.438" filterUnits="userSpaceOnUse"><feOffset dx="20" dy="3" input="SourceAlpha"/><feGaussianBlur stdDeviation="3" result="f"/><feFlood flood-opacity="0.161"/><feComposite operator="in" in2="f"/><feComposite in="SourceGraphic"/></filter><filter id="g" x="180.818" y="0" width="131.183" height="120.183" filterUnits="userSpaceOnUse"><feOffset dx="20" dy="3" input="SourceAlpha"/><feGaussianBlur stdDeviation="3" result="h"/><feFlood flood-opacity="0.161"/><feComposite operator="in" in2="h"/><feComposite in="SourceGraphic"/></filter><filter id="i" x="323.35" y="25.392" width="125.993" height="114.993" filterUnits="userSpaceOnUse"><feOffset dx="20" dy="3" input="SourceAlpha"/><feGaussianBlur stdDeviation="3" result="j"/><feFlood flood-opacity="0.161"/><feComposite operator="in" in2="j"/><feComposite in="SourceGraphic"/></filter><filter id="k" x="46.431" y="25.392" width="125.993" height="114.993" filterUnits="userSpaceOnUse"><feOffset dx="20" dy="3" input="SourceAlpha"/><feGaussianBlur stdDeviation="3" result="l"/><feFlood flood-opacity="0.161"/><feComposite operator="in" in2="l"/><feComposite in="SourceGraphic"/></filter></defs><g transform="translate(-148 -202.566)"><g class="f" transform="matrix(1, 0, 0, 1, 148, 202.57)"><path d="M812,155.48H622.448a94.786,94.786,0,0,1,189.557,0Z" transform="translate(-485.33 50.22)"/></g><g class="e" transform="matrix(1, 0, 0, 1, 148, 202.57)"><path d="M807.625,137.07H673.42A94.2,94.2,0,0,0,658,86.435,94.819,94.819,0,0,1,807.625,137.07Z" transform="translate(-343.81 65.7)"/></g><g class="d" transform="matrix(1, 0, 0, 1, 148, 202.57)"><path d="M744.66,86.435a94.2,94.2,0,0,0-15.419,50.635H595.051A94.806,94.806,0,0,1,744.66,86.435Z" transform="translate(-595.05 65.7)"/></g><g class="c" transform="matrix(1, 0, 0, 1, 148, 202.57)"><circle cx="51.091" cy="51.091" r="51.091" transform="translate(180.82 6)"/></g><g class="b" transform="matrix(1, 0, 0, 1, 148, 202.57)"><circle cx="48.496" cy="48.496" r="48.496" transform="translate(323.35 31.39)"/></g><g class="a" transform="matrix(1, 0, 0, 1, 148, 202.57)"><circle cx="48.496" cy="48.496" r="48.496" transform="translate(46.43 31.39)"/></g></g></svg>