<svg xmlns="http://www.w3.org/2000/svg" width="339.83" height="425.894" viewBox="0 0 339.83 425.894"><defs><style>.a,.b{stroke:#000;stroke-miterlimit:10;}.b{fill:#ccc;}</style></defs><g transform="translate(-1015.683 -551.057)"><path class="a" d="M861.055,75.107v51.48H522.233V75.107A38.661,38.661,0,0,1,560.88,36.435h17.794v18.6c0,7.576,5.742,13.726,12.817,13.726s12.817-6.149,12.817-13.726v-18.6H778.98v18.6c0,7.576,5.725,13.726,12.8,13.726,7.092,0,12.817-6.149,12.817-13.726v-18.6h17.811A38.651,38.651,0,0,1,861.055,75.107Z" transform="translate(493.958 553.376)"/><path class="a" d="M522.232,50.116H861.054V281.908a38.629,38.629,0,0,1-38.646,38.646H560.887a38.647,38.647,0,0,1-38.655-38.646Z" transform="translate(493.951 655.897)"/><g transform="translate(1041.779 745.396)"><rect class="b" width="48.326" height="48.326" transform="translate(60.047)"/><rect class="b" width="48.326" height="48.326" transform="translate(239.323)"/><rect class="b" width="48.326" height="48.326" transform="translate(178.126)"/><rect class="b" width="48.326" height="48.326" transform="translate(119.797)"/><g transform="translate(60.047 133.137)"><rect class="b" width="48.326" height="48.326"/><rect class="b" width="48.326" height="48.326" transform="translate(179.275)"/><rect class="b" width="48.326" height="48.326" transform="translate(118.078)"/><rect class="b" width="48.326" height="48.326" transform="translate(59.75)"/></g><g transform="translate(60.047 66.568)"><rect class="b" width="48.326" height="48.326"/><rect class="b" width="48.326" height="48.326" transform="translate(179.275)"/><rect class="b" width="48.326" height="48.326" transform="translate(118.078)"/><rect class="b" width="48.326" height="48.326" transform="translate(59.75)"/></g><rect class="b" width="48.326" height="48.326" transform="translate(0 133.137)"/><rect class="b" width="48.326" height="48.326" transform="translate(0 66.568)"/></g><path d="M547.755,47.208V81.259c0,8.383-4.3,15.187-9.6,15.187s-9.6-6.8-9.6-15.187V47.208a22.467,22.467,0,0,1,.9-6.379c1.513-5.181,4.849-8.782,8.7-8.782s7.184,3.6,8.7,8.782A22.454,22.454,0,0,1,547.755,47.208Z" transform="translate(546.356 519.01)"/><path d="M547.755,47.208V81.259c0,8.383-4.3,15.187-9.6,15.187s-9.6-6.8-9.6-15.187V47.208a22.467,22.467,0,0,1,.9-6.379c1.513-5.181,4.849-8.782,8.7-8.782s7.184,3.6,8.7,8.782A22.454,22.454,0,0,1,547.755,47.208Z" transform="translate(747.356 519.01)"/></g></svg>